Coordinates
version=1
nRows=19
nColumns=24
inDegrees=yes

Units are S.I. units (second, meters, Newtons, ...)
Angles are in degrees.

endheader
time	pelvis_tilt	pelvis_list	pelvis_rotation	pelvis_tx	pelvis_ty	pelvis_tz	hip_flexion_r	hip_adduction_r	hip_rotation_r	knee_angle_r	ankle_angle_r	subtalar_angle_r	mtp_angle_r	hip_flexion_l	hip_adduction_l	hip_rotation_l	knee_angle_l	ankle_angle_l	subtalar_angle_l	mtp_angle_l	lumbar_extension	lumbar_bending	lumbar_rotation
      3.67000000	     -4.84861694	      9.38688492	      1.79059672	     -0.74795023	     -0.01919620	     -0.20524002	     30.28203096	    -10.26792620	     -1.84067475	    -67.25025106	    -10.94895258	      1.79795377	     22.50927391	     10.95750134	     17.94727775	     -1.24321389	    -15.93579012	      7.75539942	      2.64974405	    -10.89542975	      5.41553103	    -11.90667876	     -2.58876221
      3.67500000	     -4.72655582	      9.17534835	      1.87014025	     -0.74230145	     -0.01851578	     -0.20554878	     30.81618931	    -10.01775871	     -2.10113916	    -66.38056078	    -10.44119943	      1.50899071	     22.13476776	     10.10821657	     17.74211576	     -1.00635439	    -15.53577573	      8.01501941	      2.91407964	    -10.83502561	      5.19745484	    -11.71933326	     -2.82176034
      3.68000000	     -4.60397805	      8.96543904	      1.96008978	     -0.73667976	     -0.01788720	     -0.20588488	     31.31723483	     -9.77974457	     -2.37749074	    -65.43820800	     -9.94168391	      1.23846306	     21.67842740	      9.27274208	     17.53674154	     -0.79446697	    -15.15098540	      8.26862587	      3.19161524	    -10.74722075	      4.97521513	    -11.53457999	     -3.06876148
      3.68500000	     -4.47346791	      8.78309792	      2.04871971	     -0.73105042	     -0.01733247	     -0.20617762	     31.79046506	     -9.57670048	     -2.66795667	    -64.45624428	     -9.40937735	      0.99213856	     21.06215267	      8.42856607	     17.35112143	     -0.58197976	    -14.76301087	      8.52391550	      3.48369471	    -10.62622298	      4.74548813	    -11.38223251	     -3.29649120
      3.69000000	     -4.37594942	      8.57792186	      2.09745819	     -0.72540616	     -0.01684949	     -0.20644037	     32.27645938	     -9.31839786	     -2.91086163	    -63.41102729	     -8.83787182	      0.85839582	     20.24826421	      7.63280209	     17.13868825	     -0.41099379	    -14.37368927	      8.73878215	      3.68468608	    -10.48399648	      4.56583419	    -11.19487399	     -3.48226623
      3.69500000	     -4.33437422	      8.35219423	      2.23294786	     -0.71982873	     -0.01645228	     -0.20681965	     32.76327498	     -9.09878454	     -3.22828024	    -62.23523760	     -8.42483578	      0.67005974	     19.95509620	      6.92664022	     16.92142168	     -0.16241996	    -14.05095104	      8.96542526	      3.86216310	    -10.40011605	      4.42146057	    -10.99918809	     -3.78423673
      3.70000000	     -4.20431192	      8.16323468	      2.27619695	     -0.71419724	     -0.01606349	     -0.20706389	     33.15171155	     -8.86588933	     -3.48810283	    -61.04906308	     -7.88502293	      0.55563922	     19.18043316	      6.09321431	     16.72882183	      0.09384744	    -13.64976923	      9.15183398	      3.93648355	    -10.29719094	      4.20449388	    -10.82594428	     -3.95612155
      3.70500000	     -4.26847378	      7.97435593	      2.33567165	     -0.70861832	     -0.01593434	     -0.20732367	     33.74319981	     -8.63539914	     -3.68871864	    -59.77378371	     -7.53035322	      0.48026172	     19.03142338	      5.52006654	     16.54206624	      0.31681204	    -13.32708291	      9.37587671	      4.03325251	    -10.25115519	      4.19836658	    -10.66167698	     -4.10568884
      3.71000000	     -4.10729800	      7.72369050	      2.48316776	     -0.70306371	     -0.01553875	     -0.20768642	     33.97426330	     -8.41295077	     -4.08761711	    -58.36887515	     -7.13126263	      0.35906186	     18.56306645	      4.69310136	     16.29707211	      0.63919638	    -13.01082376	      9.55415840	      4.03258710	    -10.23312876	      3.90971365	    -10.43452493	     -4.48372427
      3.71500000	     -3.99856416	      7.54130889	      2.53777089	     -0.69745503	     -0.01530956	     -0.20789780	     34.28988151	     -8.19544425	     -4.34507683	    -56.97774731	     -6.67328081	      0.40555997	     17.95629241	      3.88612107	     16.11522296	      1.04175146	    -12.61028521	      9.68406382	      3.91561634	    -10.25270740	      3.71525630	    -10.27573377	     -4.67753082
      3.72000000	     -3.96349382	      7.33852884	      2.60304140	     -0.69189190	     -0.01521396	     -0.20814515	     34.65627967	     -7.96888405	     -4.61255311	    -55.51154154	     -6.25873036	      0.51032846	     17.53794751	      3.21321893	     15.91937287	      1.34706541	    -12.29223929	      9.83331765	      3.75971623	    -10.27055186	      3.58910308	    -10.09153705	     -4.89344279
      3.72500000	     -3.91598524	      7.15191808	      2.65166806	     -0.68634720	     -0.01514962	     -0.20833669	     34.98167107	     -7.74020894	     -4.84300475	    -53.98520891	     -5.87506692	      0.67120226	     17.15863435	      2.52679037	     15.73416044	      1.67328044	    -11.96665084	      9.96152985	      3.58557814	    -10.31053718	      3.45502628	     -9.92442799	     -5.07771469
      3.73000000	     -3.86749730	      6.98203718	      2.68616380	     -0.68081978	     -0.01513121	     -0.20845711	     35.28452314	     -7.50925872	     -5.02933520	    -52.42123185	     -5.50487848	      0.92622883	     16.74492831	      1.83181349	     15.55940032	      2.05912587	    -11.62197428	     10.05626327	      3.35794430	    -10.37582101	      3.31044242	     -9.78468653	     -5.26063283
      3.73500000	     -3.84696228	      6.80677382	      2.74352757	     -0.67532091	     -0.01519427	     -0.20862237	     35.57751403	     -7.29840134	     -5.25975541	    -50.78596195	     -5.16327948	      1.20949263	     16.49155793	      1.21392594	     15.38064461	      2.32675554	    -11.35667592	     10.19926670	      3.19272878	    -10.41258503	      3.19217430	     -9.63295002	     -5.43744734
      3.74000000	     -3.81473247	      6.64634493	      2.78208647	     -0.66982472	     -0.01527980	     -0.20872555	     35.82998795	     -7.07922365	     -5.43686420	    -49.10605980	     -4.86232021	      1.56507462	     16.24950152	      0.58138641	     15.20786179	      2.59159106	    -11.08165254	     10.32905534	      3.03887031	    -10.46533870	      3.06057793	     -9.50106283	     -5.60864519
      3.74500000	     -3.79515135	      6.50033158	      2.81843128	     -0.66437277	     -0.01542720	     -0.20878549	     36.07105900	     -6.86558959	     -5.58872303	    -47.38827501	     -4.58431623	      1.97547441	     16.04402367	     -0.01584136	     15.04314834	      2.81489163	    -10.83624165	     10.47013557	      2.92673919	    -10.51107116	      2.93300380	     -9.38933232	     -5.78262115
      3.75000000	     -3.78862796	      6.36939385	      2.85347730	     -0.65891890	     -0.01563010	     -0.20883240	     36.29521741	     -6.66178020	     -5.71272568	    -45.63235784	     -4.33360063	      2.42642648	     15.88526975	     -0.57991299	     14.88899563	      2.97424497	    -10.62366766	     10.63270178	      2.88074013	    -10.54003986	      2.81893648	     -9.29252078	     -5.94809067
      3.75500000	     -3.85258948	      6.24672478	      2.87275040	     -0.65351881	     -0.01595366	     -0.20881242	     36.58125819	     -6.43822371	     -5.76250147	    -43.84913126	     -4.16197043	      2.89066811	     15.78432612	     -1.02980722	     14.73866537	      3.06459156	    -10.46463156	     10.82631003	      2.89338553	    -10.53293430	      2.77033743	     -9.20836050	     -6.05844978
      3.76000000	     -3.76018775	      6.14003584	      2.92724515	     -0.64809448	     -0.01613666	     -0.20884255	     36.63240009	     -6.27478716	     -5.90468713	    -42.02076261	     -3.86763282	      3.46384991	     15.71712573	     -1.66499617	     14.58770196	      3.11442047	    -10.29032229	     11.02891331	      3.03964005	    -10.53609763	      2.54853197	     -9.14374457	     -6.29565371
